HIERARCHY
ROOT Hips
{
    OFFSET 0.0 0.0 0.0
    CHANNELS 6 Xposition Yposition Zposition Zrotation Xrotation Yrotation
    JOINT LeftHipJoint
    {
        OFFSET 0.1 0.0 0.0
        CHANNELS 3 Zrotation Xrotation Yrotation
        JOINT LeftUpLeg
        {
            OFFSET 123.57533067881184 0.0 0.0
            CHANNELS 3 Zrotation Xrotation Yrotation
            JOINT LeftLeg
            {
                OFFSET 0.0 0.0 -415.27990996306585
                CHANNELS 3 Zrotation Xrotation Yrotation
                JOINT LeftFoot
                {
                    OFFSET 0.0 0.0 -410.0003042788212
                    CHANNELS 3 Zrotation Xrotation Yrotation
                    End Site
                    {
                        OFFSET 0.0 -0.1 0.0
                    }
                }
            }
        }
    }
    JOINT LowerBack
    {
        OFFSET 0.0 0.0 0.1
        CHANNELS 3 Zrotation Xrotation Yrotation
        JOINT Spine
        {
            OFFSET 0.0 0.0 221.4826840784088
            CHANNELS 3 Zrotation Xrotation Yrotation
            JOINT Spine1
            {
                OFFSET 0.0 0.0 250.63954875236945
                CHANNELS 3 Zrotation Xrotation Yrotation
                JOINT LeftShoulder
                {
                    OFFSET 0.1 0.0 0.0
                    CHANNELS 3 Zrotation Xrotation Yrotation
                    JOINT LeftArm
                    {
                        OFFSET 139.70433584889224 0.0 0.0
                        CHANNELS 3 Zrotation Xrotation Yrotation
                        JOINT LeftForeArm
                        {
                            OFFSET 261.13470370755476 0.0 0.0
                            CHANNELS 3 Zrotation Xrotation Yrotation
                            JOINT LeftHand
                            {
                                OFFSET 238.87565915682296 0.0 0.0
                                CHANNELS 3 Zrotation Xrotation Yrotation
                                End Site
                                {
                                    OFFSET 0.1 0.0 0.0
                                }
                            }
                        }
                    }
                }
                JOINT Neck
                {
                    OFFSET 0.0 0.0 0.1
                    CHANNELS 3 Zrotation Xrotation Yrotation
                    JOINT Neck1
                    {
                        OFFSET 0.0 0.0 105.55907238858575
                        CHANNELS 3 Zrotation Xrotation Yrotation
                        End Site
                        {
                            OFFSET 0.0 0.0 117.64749278209847
                        }
                    }
                }
                JOINT RightShoulder
                {
                    OFFSET -0.1 0.0 0.0
                    CHANNELS 3 Zrotation Xrotation Yrotation
                    JOINT RightArm
                    {
                        OFFSET -139.70433584889224 0.0 0.0
                        CHANNELS 3 Zrotation Xrotation Yrotation
                        JOINT RightForeArm
                        {
                            OFFSET -261.13470370755476 0.0 0.0
                            CHANNELS 3 Zrotation Xrotation Yrotation
                            JOINT RightHand
                            {
                                OFFSET -238.87565915682296 0.0 0.0
                                CHANNELS 3 Zrotation Xrotation Yrotation
                                End Site
                                {
                                    OFFSET -0.1 0.0 0.0
                                }
                            }
                        }
                    }
                }
            }
        }
    }
    JOINT RightHipJoint
    {
        OFFSET -0.1 0.0 0.0
        CHANNELS 3 Zrotation Xrotation Yrotation
        JOINT RightUpLeg
        {
            OFFSET -123.57533067881184 0.0 0.0
            CHANNELS 3 Zrotation Xrotation Yrotation
            JOINT RightLeg
            {
                OFFSET 0.0 0.0 -415.27990996306585
                CHANNELS 3 Zrotation Xrotation Yrotation
                JOINT RightFoot
                {
                    OFFSET 0.0 0.0 -410.0003042788212
                    CHANNELS 3 Zrotation Xrotation Yrotation
                    End Site
                    {
                        OFFSET 0.0 -0.1 0.0
                    }
                }
            }
        }
    }
}
MOTION
Frames: 9
Frame Time: 0.03333333333333333
0.0 0.0 822.5481467276767 19.72489664052761 6.022608090885104 4.7487859891083595 0.0 0.0 -2.981770013872047e-16 -0.36975794279657426 -16.609181821791246 -0.31292376560662793 0.32455059229403527 18.15355352614755 0.0991086232757328 0.0 0.0 -1.987846675914698e-16 0.0 0.0 -2.981770013872047e-16 0.13157639443593755 6.00436485134494 0.5668263125650659 -3.2801549250442172 -4.7518094478794736e-15 -7.326549335616963e-16 0.0 0.0 7.951386703658791e-16 -30.21101633990326 11.819853166853411 74.56892781528236 -53.115723901292256 -2.8467377921803987e-15 -1.5645903169426147e-14 0.0 0.0 7.951386703658792e-16 0.0 0.0 7.951386703658791e-16 -4.547284176243615 8.989090246705112 -11.920428264105018 0.0 0.0 7.951386703658791e-16 28.7597107595587 17.565285479112166 -84.81697423784202 51.4969692954079 1.9647878685248857e-14 1.8772948972914367e-14 0.0 0.0 -1.5902773407317588e-15 0.0 0.0 -2.981770013872047e-16 -0.4225046525464467 -18.519050695884697 -5.269893351929087 -1.7568336768953763 23.950437220471425 1.0189859337016784 0.0 0.0 3.975693351829396e-16
0.0 0.0 822.5481467276767 19.85053274405542 6.027336209609349 4.760988676130737 0.0 0.0 1.987846675914698e-16 -0.3695403419148398 -16.66760088709969 -0.27600631762573286 0.3383773013386097 18.32176156552032 0.03404414116097262 0.0 0.0 -1.9878466759146977e-16 0.0 0.0 1.987846675914698e-16 0.1298435995503066 5.949721881896594 0.5538495175289624 -3.2448560879637753 1.7827166131500893e-15 2.4935855889395177e-16 0.0 0.0 7.951386703658792e-16 -30.01768715310766 12.013505752652495 74.67669878438761 -53.171023201577405 4.979371088302678e-15 -2.842996628692821e-15 0.0 0.0 -1.5902773407317584e-15 0.0 0.0 7.951386703658792e-16 -4.691455001998157 8.98753470693168 -11.820988232529078 0.0 0.0 7.951386703658792e-16 28.63020719439386 17.6133324452725 -84.8843231866936 51.14346194185809 4.365153740644153e-15 -5.614719336657695e-15 0.0 0.0 -1.5902773407317584e-15 0.0 0.0 1.987846675914698e-16 -0.42175001126109213 -18.553960595325925 -5.301537417895392 -1.7887616989838626 24.136518123701297 1.0401632961289466 0.0 0.0 3.975693351829396e-16
0.0 0.0 822.5481467276767 20.023991944254497 5.98564321395093 4.751319346211601 0.0 0.0 1.987846675914698e-16 -0.3694731683588764 -16.65816603344557 -0.24056063271711073 0.3555850644150788 18.57510910081075 -0.006321423242696034 0.0 0.0 1.987846675914698e-16 0.0 0.0 1.987846675914698e-16 0.1290648335984577 5.910379758211059 0.5350399876633397 -3.202824559144315 1.9870702756774678e-16 5.555291589274403e-18 0.0 0.0 -5.963540027744094e-16 -29.90876967011677 11.950106910241882 74.65986872329512 -53.07878145875416 -7.137416934929023e-16 -5.6892300938486594e-15 0.0 0.0 -7.951386703658792e-16 0.0 0.0 -5.963540027744094e-16 -4.812006008443516 9.023487772262857 -11.627947281290847 0.0 0.0 -5.963540027744094e-16 28.53878177406577 17.32604954622448 -84.73123191647852 50.924796319593206 0.0 0.0 0.0 0.0 4.770832022195277e-15 0.0 0.0 1.987846675914698e-16 -0.42375586895609235 -18.62131814991129 -5.2907784950810095 -1.8122843055200255 24.483115428660547 1.0714960055611993 0.0 0.0 -3.975693351829396e-16
0.0 0.0 822.5481467276767 20.13499498268643 5.961341012016862 4.705827050173128 0.0 0.0 2.981770013872047e-16 -0.3544886235007993 -16.713692295283444 -0.14670048059126753 0.3747334182678986 18.87552211275661 -0.13139438400941394 0.0 0.0 -3.975693351829396e-16 0.0 0.0 2.981770013872047e-16 0.12190469708923217 5.835642622390893 0.5426745605401618 -3.1416240381366753 -1.2358531273311995e-15 1.5569847316562896e-15 -3.1805546814635168e-15 -1.5902773407317584e-15 7.951386703658792e-16 -29.84126209885966 11.841749256937895 74.57402253775116 -53.15322308562722 -9.247813148094225e-15 1.1377232691465438e-14 0.0 0.0 -7.951386703658794e-16 -3.1805546814635168e-15 -1.5902773407317584e-15 7.951386703658792e-16 -5.020943555044934 9.069297097438541 -11.486416037729315 -3.1805546814635168e-15 -1.5902773407317584e-15 7.951386703658792e-16 28.597040762350332 17.0253422957622 -84.47361956989923 51.04448443137424 -8.610570261265846e-15 4.1111351853009694e-15 0.0 0.0 -3.1805546814635168e-15 0.0 0.0 2.981770013872047e-16 -0.4066488724005784 -18.66393629128626 -5.2367417355921 -1.8314806741916678 24.697370554199242 1.0747086383821784 0.0 0.0 0.0
0.0 0.0 822.5481467276767 20.16285975077455 5.923712711683803 4.665026643455019 0.0 0.0 -2.981770013872047e-16 -0.3410033495453431 -16.632283511635336 -0.11557960372861031 0.3751701330541237 19.055860453991286 -0.16379259372568258 0.0 0.0 0.0 0.0 0.0 -2.981770013872047e-16 0.11691931151769634 5.7855558537180505 0.6420036761650354 -2.976834033019874 -2.1858935664621658e-15 -5.679743394646411e-17 -3.1805546814635168e-15 5.517382872562698e-33 -1.987846675914698e-16 -29.860142974845896 11.935874651988183 74.54587022223647 -53.0422498418798 -2.1248564415187188e-15 1.1380730740445215e-14 0.0 0.0 7.951386703658791e-16 -3.1805546814635168e-15 5.517382872562698e-33 -1.987846675914698e-16 -5.2683985880312845 9.176016016171012 -11.438203089769825 -3.1805546814635168e-15 5.517382872562698e-33 -1.987846675914698e-16 28.519444558013014 16.613698393948432 -84.24144375562561 51.39170533209893 9.761369465042765e-15 1.295105386805249e-14 0.0 0.0 0.0 0.0 0.0 -2.981770013872047e-16 -0.3914473411170802 -18.568573520746437 -5.17850834847566 -1.8271312051693958 24.737066244011046 1.041674922684135 5.517382872562698e-33 -1.5902773407317584e-15 3.975693351829396e-16
0.0 0.0 822.5481467276767 20.19602944412718 5.970037837354405 4.606579394288519 0.0 0.0 1.987846675914698e-16 -0.32163389236407863 -16.70222731134429 -0.03622982779319298 0.38087334415516866 19.208963348295107 -0.1899866678250209 -2.758691436281349e-33 1.5902773407317584e-15 1.987846675914698e-16 0.0 0.0 1.987846675914698e-16 0.11009336029024146 5.797950806266098 0.7482931147275216 -2.758855407277833 -8.379767376907187e-16 1.7694019785865454e-15 -6.896728590703373e-34 -1.987846675914698e-16 -3.975693351829396e-16 -29.448938536976193 12.190598503157355 74.64732158890864 -53.71022701036951 7.200865601959184e-17 -1.4223690673979385e-14 0.0 0.0 -1.5902773407317584e-15 -6.896728590703373e-34 -1.987846675914698e-16 -3.975693351829396e-16 -5.592585276707822 9.1564415623837 -11.416925631760366 -6.896728590703373e-34 -1.987846675914698e-16 -3.975693351829396e-16 28.397350833468987 16.278940387604752 -84.01684008077456 51.76595647355909 5.807672092455615e-15 -9.88827638821072e-15 0.0 0.0 -1.5902773407317588e-15 0.0 0.0 1.987846675914698e-16 -0.36899308961676325 -18.614912887492338 -5.065739682808232 -1.8098708119996312 24.749926990211534 0.9659250701185673 0.0 0.0 0.0
0.0 0.0 822.5481467276767 20.330614554948752 5.976783116558515 4.550110243703528 0.0 0.0 -1.987846675914698e-16 -0.291624134237112 -16.756691738043884 0.04255474833536188 0.37425591799488 19.37650875333639 -0.20428209873507294 2.758691436281349e-33 -1.5902773407317584e-15 1.987846675914698e-16 0.0 0.0 -1.987846675914698e-16 0.09880829940225665 5.7534670166304975 0.7977777005883062 -2.6250463275266087 -6.374663713392025e-17 2.7822551651253236e-15 0.0 0.0 3.975693351829396e-16 -29.347988020853677 12.422368430731947 74.84651100293821 -53.675136063593925 -7.931286407644786e-15 2.272073015115899e-14 -3.1805546814635168e-15 8.827812596100317e-32 -3.1805546814635168e-15 0.0 0.0 3.975693351829396e-16 -5.777370045571862 9.1697684771433 -11.397201380186203 0.0 0.0 3.975693351829396e-16 28.40727935402464 16.272670799021732 -83.8525971215918 52.25634333576045 0.0 0.0 0.0 0.0 0.0 0.0 0.0 -1.987846675914698e-16 -0.3335030781871156 -18.585898672739773 -4.986773672597374 -1.8187347633998878 24.687165397385805 0.9970236263145573 0.0 0.0 3.9756933518293955e-16
0.0 0.0 822.5481467276767 20.481939154036336 6.084994423678383 4.50916109632667 -3.1805546814635164e-15 1.9878466759146975e-16 3.9756933518293955e-16 -0.2821174226322995 -16.93440850268886 0.09357060117964938 0.3784215140815949 19.441598835325834 -0.17714178320357016 -1.1034765745125397e-32 -1.5902773407317584e-15 -7.951386703658792e-16 -3.1805546814635164e-15 1.9878466759146975e-16 3.9756933518293955e-16 0.09444585503793604 5.74653963690699 0.8773058328159287 -2.471721875255373 4.2748880298934865e-16 -1.3825941410984077e-15 -3.1805546814635164e-15 -1.5902773407317582e-15 -1.3914926731402884e-15 -29.072321612538257 12.387180828342725 74.71829470808257 -54.312064351563 1.7126423756656715e-14 -5.513193985737141e-15 0.0 0.0 0.0 -3.1805546814635164e-15 -1.5902773407317582e-15 -1.3914926731402884e-15 -5.991789709095549 9.117180013447202 -11.338660357913225 -3.1805546814635164e-15 -1.5902773407317582e-15 -1.3914926731402884e-15 28.386492175440015 15.739581649378598 -83.38612792408915 52.81355054931701 1.4145233709572065e-15 2.8486929835971016e-15 6.361109362927032e-15 -4.413906298050159e-31 -7.95138670365879e-15 -3.1805546814635164e-15 1.9878466759146975e-16 3.9756933518293955e-16 -0.32075084333063886 -18.664827741148184 -4.896447557786516 -1.7928487652051128 24.632751014553946 0.9158600377460636 0.0 0.0 0.0
0.0 0.0 822.5481467276767 20.65446450758275 6.0734044754286876 4.440312694190041 0.0 0.0 -5.963540027744094e-16 -0.25041502057968335 -16.937645993470657 0.168253551049556 0.36779855511270365 19.51478211558576 -0.14571121158852954 0.0 0.0 1.987846675914698e-16 0.0 0.0 -5.963540027744094e-16 0.08373638912205969 5.732108188357305 0.9629042948521331 -2.3856022941595176 -2.587778761527358e-15 1.4494679435788828e-16 0.0 0.0 -3.975693351829396e-16 -28.877562355138522 12.333004984606712 74.56395620311051 -54.66742657847827 -1.3318093164686329e-14 1.1912698037720108e-14 0.0 0.0 -2.3854160110976376e-15 0.0 0.0 -3.975693351829396e-16 -6.181613511791744 9.022394320069061 -11.270593940721547 0.0 0.0 -3.975693351829396e-16 28.126884283870925 15.31961857487359 -83.05752500346705 53.227299609205645 -4.262334439805748e-15 5.693166564588048e-15 0.0 0.0 3.1805546814635168e-15 0.0 0.0 -5.963540027744094e-16 -0.2841963788841615 -18.584234153051803 -4.7843015493155665 -1.782203785437037 24.512903184733627 0.847400901677488 0.0 0.0 3.975693351829396e-16
